<svg xmlns="http://www.w3.org/2000/svg" viewBox="0 0 1100 250" role="img">
  <title>Shipped systems pipelines</title>
  <rect width="1100" height="250" rx="18" fill="#07080d"/>
  <rect x="1" y="1" width="1098" height="248" rx="17" fill="none" stroke="#1c2433"/>
  <text x="28" y="34" font-family="ui-monospace, Menlo, Consolas, monospace" font-size="12" fill="#8b95a8">SYSTEMS / OPEN THE LIVE DASHBOARD TO INSPECT EACH STAGE</text>
  <g font-family="ui-monospace, Menlo, Consolas, monospace" font-size="12">
    <text x="28" y="68" fill="#5ce1e6">CONNECT STREAM</text>
    <rect x="28" y="80" width="150" height="36" rx="8" fill="#0e1118" stroke="#1c2433"/>
    <rect x="198" y="80" width="150" height="36" rx="8" fill="#0e1118" stroke="#1c2433"/>
    <rect x="368" y="80" width="150" height="36" rx="8" fill="#0e1118" stroke="#1c2433"/>
    <rect x="538" y="80" width="150" height="36" rx="8" fill="#0e1118" stroke="#1c2433"/>
    <text x="46" y="102" fill="#e8edf5">SQS + Lambda</text>
    <text x="236" y="102" fill="#e8edf5">Kinesis</text>
    <text x="406" y="102" fill="#e8edf5">Spark / EMR</text>
    <text x="568" y="102" fill="#e8edf5">Iceberg</text>
    <path d="M178 98 H198 M348 98 H368 M518 98 H538" stroke="#5ce1e6" stroke-width="2"/>
    <text x="720" y="102" fill="#8b95a8">freshness: daily batch to minutes</text>
    <text x="28" y="148" fill="#a78bfa">BIZTALK TO AWS</text>
    <rect x="28" y="160" width="150" height="36" rx="8" fill="#0e1118" stroke="#1c2433"/>
    <rect x="198" y="160" width="150" height="36" rx="8" fill="#0e1118" stroke="#1c2433"/>
    <rect x="368" y="160" width="150" height="36" rx="8" fill="#0e1118" stroke="#1c2433"/>
    <rect x="538" y="160" width="150" height="36" rx="8" fill="#0e1118" stroke="#1c2433"/>
    <text x="52" y="182" fill="#e8edf5">API Gateway</text>
    <text x="220" y="182" fill="#e8edf5">12 Lambdas</text>
    <text x="398" y="182" fill="#e8edf5">DynamoDB</text>
    <text x="552" y="182" fill="#e8edf5">Step Functions</text>
    <path d="M178 178 H198 M348 178 H368 M518 178 H538" stroke="#a78bfa" stroke-width="2"/>
    <text x="720" y="182" fill="#8b95a8">99.9% avail | 27M loan/KYC txs</text>
  </g>
</svg>
